<?xml version="1.0" encoding="UTF-8"?>
<svg id="Layer_2" data-name="Layer 2" xmlns="http://www.w3.org/2000/svg" viewBox="0 0 444.9 200">
  <defs>
    <style>
      .cls-1 {
        fill: #fff;
      }
    </style>
  </defs>
  <g id="Layer_1-2" data-name="Layer 1">
    <g>
      <path class="cls-1" d="M232.15,64.86c-7.77,0-14.07,6.3-14.07,14.07,0-7.77-6.3-14.07-14.07-14.07,7.77,0,14.07-6.3,14.07-14.07,0,7.77,6.3,14.07,14.07,14.07Z"/>
      <path class="cls-1" d="M272.26,86.16c-3.43,2.27-6.86,4.53-10.29,6.8-14.07-20.84-25.05-43.76-32.46-67.79-3.8,4.7-7.6,9.41-11.4,14.11-4.56-5.08-9.13-10.16-13.69-15.24-8.28,26.01-18.98,51.44-34.15,74.13-15.17,22.7-34.98,42.64-58.98,55.65,17.88-13.85,33.3-30.87,45.31-50.03-.23.31-9.81-6.14-10.74-6.79-3.22-2.25-6.37-4.6-9.46-7.03-37.2,45.61-76.8,78.71-97.94,94.97,58.8-1.16,116.03-17.19,174.36-48.78l5.5-2.98,5.96,11-5.5,2.98c-62.46,33.83-123.8,50.36-187.12,50.36-4.1,0-8.2-.07-12.32-.2l-19.36-.66,16.09-10.79c.6-.41,60.85-41.2,114.5-108.58l4-5.03,4.92,4.13c.12.09,10.73,9,20.31,14.8,1.74-1.88,5.44-6.94,11.91-20.35.62-1.28,1.26-2.64,1.93-4.09,7.43-15.99,13.91-32.46,20.08-48.97,2.2-5.88,4.34-11.78,6.42-17.71,5.83,6.6,11.66,13.2,17.5,19.8,5.17-6.87,10.65-13.51,16.42-19.9,8.42,30.38,21.34,59.52,38.19,86.16Z"/>
      <path class="cls-1" d="M444.9,200h-20.65c-117.9,0-170.2-35.7-193.32-65.65-17.47-22.63-18.81-42.53-18.86-43.36h12.56c.44,3.5,3.03,18.67,16.2,35.71,20.08,26.01,64.61,56.71,163.14,60.42-26.33-19.19-76.47-58.64-99.93-96.29-4.09,3.4-10.25,8.36-18.31,14.32,4.32,8.27,9.14,16.28,14.7,23.81,6.48,9.05,14.36,17.02,22.71,24.37-2.35-1.53-4.81-2.9-7.18-4.45-15.34-9.74-28.33-22.76-39.58-36.98-5.72,4.06-12.44,8.65-21.48,14.33l-6.66-10.59c10.87-6.83,18.31-12.05,24.72-16.66,18.06-12.99,28.37-22.33,28.48-22.43l5.92-5.38,3.8,7.04c27.08,50.3,115.66,109.72,116.55,110.32l17.18,11.46Z"/>
    </g>
  </g>
</svg>