<svg width="65" height="64" viewBox="0 0 65 64" fill="none" xmlns="http://www.w3.org/2000/svg">
<path d="M46.463 12H18.463C17.9326 12 17.4239 11.7893 17.0488 11.4142C16.6737 11.0391 16.463 10.5304 16.463 10C16.463 9.46957 16.6737 8.96086 17.0488 8.58579C17.4239 8.21071 17.9326 8 18.463 8H46.463C46.9934 8 47.5021 8.21071 47.8772 8.58579C48.2523 8.96086 48.463 9.46957 48.463 10C48.463 10.5304 48.2523 11.0391 47.8772 11.4142C47.5021 11.7893 46.9934 12 46.463 12Z" fill="white"/>
<path d="M50.463 18H14.463C13.9326 18 13.4239 17.7893 13.0488 17.4142C12.6737 17.0391 12.463 16.5304 12.463 16C12.463 15.4696 12.6737 14.9609 13.0488 14.5858C13.4239 14.2107 13.9326 14 14.463 14H50.463C50.9934 14 51.5021 14.2107 51.8772 14.5858C52.2523 14.9609 52.463 15.4696 52.463 16C52.463 16.5304 52.2523 17.0391 51.8772 17.4142C51.5021 17.7893 50.9934 18 50.463 18Z" fill="white"/>
<path d="M52.8542 56H12.0717C10.5847 55.9983 9.15908 55.4069 8.10759 54.3554C7.0561 53.3039 6.46465 51.8783 6.463 50.3913V25.6087C6.46465 24.1217 7.0561 22.6961 8.10759 21.6446C9.15908 20.5931 10.5847 20.0017 12.0717 20H52.8542C54.3413 20.0017 55.7669 20.5931 56.8184 21.6446C57.8699 22.6961 58.4613 24.1217 58.463 25.6087V50.3913C58.4613 51.8783 57.8699 53.3039 56.8184 54.3554C55.7669 55.4069 54.3413 55.9983 52.8542 56Z" fill="white"/>
</svg>
