<svg width="50" height="50" viewBox="0 0 50 50" fill="none" xmlns="http://www.w3.org/2000/svg">
<path d="M7.57506 23.5265C7.18449 23.9172 6.96509 24.447 6.96509 24.9994C6.96509 25.5518 7.18449 26.0816 7.57506 26.4723L19.3605 38.2577C19.7534 38.6372 20.2797 38.8472 20.8259 38.8425C21.3721 38.8377 21.8947 38.6186 22.2809 38.2324C22.6672 37.8461 22.8863 37.3236 22.891 36.7773C22.8958 36.2311 22.6858 35.7048 22.3063 35.3119L14.0771 27.0827H41.6667C42.2193 27.0827 42.7492 26.8632 43.1399 26.4725C43.5306 26.0818 43.7501 25.5519 43.7501 24.9994C43.7501 24.4469 43.5306 23.917 43.1399 23.5263C42.7492 23.1356 42.2193 22.9161 41.6667 22.9161H14.0771L22.3063 14.6869C22.6858 14.294 22.8958 13.7677 22.891 13.2215C22.8863 12.6752 22.6672 12.1527 22.2809 11.7664C21.8947 11.3802 21.3721 11.1611 20.8259 11.1563C20.2797 11.1516 19.7534 11.3616 19.3605 11.7411L7.57506 23.5265Z" fill="#FDFCFC"/>
</svg>
