<svg width="30" height="30" viewBox="0 0 30 30" fill="none" xmlns="http://www.w3.org/2000/svg">
<g clip-path="url(#clip0_224_1031)">
<path d="M16.5 13.7222C17.1384 13.7222 17.7705 13.5965 18.3603 13.3522C18.95 13.1079 19.4859 12.7498 19.9373 12.2984C20.3887 11.847 20.7468 11.3112 20.9911 10.7214C21.2354 10.1316 21.3611 9.49948 21.3611 8.86111C21.3611 8.22274 21.2354 7.59062 20.9911 7.00084C20.7468 6.41107 20.3887 5.87518 19.9373 5.42379C19.4859 4.97239 18.95 4.61432 18.3603 4.37003C17.7705 4.12574 17.1384 4 16.5 4C15.2108 4 13.9743 4.51215 13.0627 5.42379C12.151 6.33542 11.6389 7.57186 11.6389 8.86111C11.6389 10.1504 12.151 11.3868 13.0627 12.2984C13.9743 13.2101 15.2108 13.7222 16.5 13.7222ZM4 28.1667V29H29V28.1667C29 25.0556 29 23.5 28.3944 22.3111C27.8618 21.2658 27.012 20.416 25.9667 19.8833C24.7778 19.2778 23.2222 19.2778 20.1111 19.2778H12.8889C9.77778 19.2778 8.22222 19.2778 7.03333 19.8833C5.98803 20.416 5.13818 21.2658 4.60556 22.3111C4 23.5 4 25.0556 4 28.1667Z" fill="#0272BA" stroke="#0272BA" stroke-width="2.08333" stroke-linecap="round" stroke-linejoin="round"/>
</g>
<defs>
<clipPath id="clip0_224_1031">
<rect width="30" height="30" fill="white"/>
</clipPath>
</defs>
</svg>
